<svg width="24" height="24" viewBox="0 0 24 24" fill="none" xmlns="http://www.w3.org/2000/svg">
<path d="M24 12C24 18.6276 18.6276 24 12 24C5.3724 24 0 18.6276 0 12C0 5.3724 5.3724 0 12 0C18.6276 0 24 5.3724 24 12ZM14.4 6C14.4 5.68174 14.2736 5.37652 14.0485 5.15147C13.8235 4.92643 13.5183 4.8 13.2 4.8C12.8817 4.8 12.5765 4.92643 12.3515 5.15147C12.1264 5.37652 12 5.68174 12 6C12 6.31826 12.1264 6.62348 12.3515 6.84853C12.5765 7.07357 12.8817 7.2 13.2 7.2C13.5183 7.2 13.8235 7.07357 14.0485 6.84853C14.2736 6.62348 14.4 6.31826 14.4 6ZM13.2 10.8C13.5183 10.8 13.8235 10.6736 14.0485 10.4485C14.2736 10.2235 14.4 9.91826 14.4 9.6C14.4 9.28174 14.2736 8.97652 14.0485 8.75147C13.8235 8.52643 13.5183 8.4 13.2 8.4C12.8817 8.4 12.5765 8.52643 12.3515 8.75147C12.1264 8.97652 12 9.28174 12 9.6C12 9.91826 12.1264 10.2235 12.3515 10.4485C12.5765 10.6736 12.8817 10.8 13.2 10.8ZM18 12C18 11.6817 17.8736 11.3765 17.6485 11.1515C17.4235 10.9264 17.1183 10.8 16.8 10.8C16.4817 10.8 16.1765 10.9264 15.9515 11.1515C15.7264 11.3765 15.6 11.6817 15.6 12C15.6 12.3183 15.7264 12.6235 15.9515 12.8485C16.1765 13.0736 16.4817 13.2 16.8 13.2C17.1183 13.2 17.4235 13.0736 17.6485 12.8485C17.8736 12.6235 18 12.3183 18 12ZM16.8 9.6C17.1183 9.6 17.4235 9.47357 17.6485 9.24853C17.8736 9.02348 18 8.71826 18 8.4C18 8.08174 17.8736 7.77652 17.6485 7.55147C17.4235 7.32643 17.1183 7.2 16.8 7.2C16.4817 7.2 16.1765 7.32643 15.9515 7.55147C15.7264 7.77652 15.6 8.08174 15.6 8.4C15.6 8.71826 15.7264 9.02348 15.9515 9.24853C16.1765 9.47357 16.4817 9.6 16.8 9.6Z" fill="#FF4646"/>
</svg>
