<svg width="12" height="13" viewBox="0 0 12 13" fill="none" xmlns="http://www.w3.org/2000/svg">
<path fill-rule="evenodd" clip-rule="evenodd" d="M12 8.99849C12 11.7578 9.50066 12.9982 6.00046 12.9982C2.50027 12.9982 0 11.7578 0 9.01799C0 6.39517 1.14662 4.90317 3.43985 3.55416C4.1789 4.1095 5.07849 4.40946 6.00294 4.40879C6.92739 4.40812 7.82655 4.10686 8.5648 3.55045C10.8552 4.88553 12 6.37753 12 8.99849ZM7.61872 2.79284L8.79783 0.949904C8.84902 0.852126 8.87442 0.74291 8.87165 0.632579C8.86887 0.522248 8.838 0.414449 8.78196 0.319371C8.72591 0.224293 8.64655 0.145079 8.55136 0.0892157C8.45618 0.0333526 8.34832 0.00268666 8.23799 0.000116901H3.99783C3.88023 -0.00211375 3.76422 0.0276158 3.66218 0.0861355C3.56014 0.144655 3.4759 0.229771 3.41844 0.332406C3.36097 0.435042 3.33244 0.55135 3.33588 0.668927C3.33933 0.786504 3.37462 0.900942 3.43799 1.00004L4.41006 2.81048C5.39513 3.40004 6.6383 3.39447 7.61872 2.79284Z" fill="white"/>
</svg>
